<svg width="323" height="402" viewBox="0 0 323 402" fill="none" xmlns="http://www.w3.org/2000/svg">
<path d="M205 276.519V239.485L151 227.141L162.18 276.519H205Z" fill="#9ABADB"/>
<path d="M119.177 276.001H162V226.926L119.177 239.195V276.001Z" fill="#D1E8FF"/>
<path d="M305 183.986L150.819 171.717L162 239.195H305V183.986Z" fill="#D1E8FF"/>
<path d="M19 183.548V239.211H162V171.178L19 183.548Z" fill="#F5F5FF"/>
<path d="M230 266.643H161.623L156 275.97L161.623 285.297H230V266.643Z" fill="#D1E8FF"/>
<path d="M162 266.643H94V285.297H162V266.643Z" fill="#F5F5FF"/>
<path d="M305 0H162.168L151 92.173L162.168 184.346H305V0Z" fill="#294B6E"/>
<path d="M162 0H19V184.346H162V0Z" fill="#6283A3"/>
<path d="M118.991 140.454L74 91.6243L118.991 42.7946L131 55.8281L98.0178 91.6243L131 127.421L118.991 140.454Z" fill="#F5F5FF"/>
<path d="M205.108 140.706L193.258 127.704L225.803 91.993L193.258 56.2823L205.108 43.2799L249.501 91.993L205.108 140.706Z" fill="#D1E8FF"/>
<path d="M143.448 147.199L159.884 150.787L180.549 36.7904L164.113 33.2028L143.448 147.199Z" fill="#D1E8FF"/>
<path d="M31 360.969H11.2812V377.094H34.1875V382H5.28125V336.5H33.875V341.438H11.2812V356.062H31V360.969ZM69.3125 365.469C69.3125 370.615 68.1354 374.76 65.7812 377.906C63.4271 381.052 60.2396 382.625 56.2188 382.625C52.1146 382.625 48.8854 381.323 46.5312 378.719V395H40.75V348.188H46.0312L46.3125 351.938C48.6667 349.021 51.9375 347.562 56.125 347.562C60.1875 347.562 63.3958 349.094 65.75 352.156C68.125 355.219 69.3125 359.479 69.3125 364.938V365.469ZM63.5312 364.812C63.5312 361 62.7188 357.99 61.0938 355.781C59.4688 353.573 57.2396 352.469 54.4062 352.469C50.9062 352.469 48.2812 354.021 46.5312 357.125V373.281C48.2604 376.365 50.9062 377.906 54.4688 377.906C57.2396 377.906 59.4375 376.812 61.0625 374.625C62.7083 372.417 63.5312 369.146 63.5312 364.812ZM82.9688 382H77.1875V348.188H82.9688V382ZM76.7188 339.219C76.7188 338.281 77 337.49 77.5625 336.844C78.1458 336.198 79 335.875 80.125 335.875C81.25 335.875 82.1042 336.198 82.6875 336.844C83.2708 337.49 83.5625 338.281 83.5625 339.219C83.5625 340.156 83.2708 340.938 82.6875 341.562C82.1042 342.188 81.25 342.5 80.125 342.5C79 342.5 78.1458 342.188 77.5625 341.562C77 340.938 76.7188 340.156 76.7188 339.219ZM103.594 360.531L111.094 348.188H117.844L106.781 364.906L118.188 382H111.5L103.688 369.344L95.875 382H89.1562L100.562 364.906L89.5 348.188H96.1875L103.594 360.531Z" fill="#D83E52"/>
<path d="M179.75 367.562C179.188 372.375 177.406 376.094 174.406 378.719C171.427 381.323 167.458 382.625 162.5 382.625C157.125 382.625 152.812 380.698 149.562 376.844C146.333 372.99 144.719 367.833 144.719 361.375V357C144.719 352.771 145.469 349.052 146.969 345.844C148.49 342.635 150.635 340.177 153.406 338.469C156.177 336.74 159.385 335.875 163.031 335.875C167.865 335.875 171.74 337.229 174.656 339.938C177.573 342.625 179.271 346.354 179.75 351.125H173.719C173.198 347.5 172.062 344.875 170.312 343.25C168.583 341.625 166.156 340.812 163.031 340.812C159.198 340.812 156.188 342.229 154 345.062C151.833 347.896 150.75 351.927 150.75 357.156V361.562C150.75 366.5 151.781 370.427 153.844 373.344C155.906 376.26 158.792 377.719 162.5 377.719C165.833 377.719 168.385 376.969 170.156 375.469C171.948 373.948 173.135 371.312 173.719 367.562H179.75ZM185.531 364.781C185.531 361.469 186.177 358.49 187.469 355.844C188.781 353.198 190.594 351.156 192.906 349.719C195.24 348.281 197.896 347.562 200.875 347.562C205.479 347.562 209.198 349.156 212.031 352.344C214.885 355.531 216.312 359.771 216.312 365.062V365.469C216.312 368.76 215.677 371.719 214.406 374.344C213.156 376.948 211.354 378.979 209 380.438C206.667 381.896 203.979 382.625 200.938 382.625C196.354 382.625 192.635 381.031 189.781 377.844C186.948 374.656 185.531 370.438 185.531 365.188V364.781ZM191.344 365.469C191.344 369.219 192.208 372.229 193.938 374.5C195.688 376.771 198.021 377.906 200.938 377.906C203.875 377.906 206.208 376.76 207.938 374.469C209.667 372.156 210.531 368.927 210.531 364.781C210.531 361.073 209.646 358.073 207.875 355.781C206.125 353.469 203.792 352.312 200.875 352.312C198.021 352.312 195.719 353.448 193.969 355.719C192.219 357.99 191.344 361.24 191.344 365.469ZM222.156 364.812C222.156 359.625 223.385 355.458 225.844 352.312C228.302 349.146 231.521 347.562 235.5 347.562C239.458 347.562 242.594 348.917 244.906 351.625V334H250.688V382H245.375L245.094 378.375C242.781 381.208 239.562 382.625 235.438 382.625C231.521 382.625 228.323 381.021 225.844 377.812C223.385 374.604 222.156 370.417 222.156 365.25V364.812ZM227.938 365.469C227.938 369.302 228.729 372.302 230.312 374.469C231.896 376.635 234.083 377.719 236.875 377.719C240.542 377.719 243.219 376.073 244.906 372.781V357.25C243.177 354.062 240.521 352.469 236.938 352.469C234.104 352.469 231.896 353.562 230.312 355.75C228.729 357.938 227.938 361.177 227.938 365.469ZM273.719 382.625C269.135 382.625 265.406 381.125 262.531 378.125C259.656 375.104 258.219 371.073 258.219 366.031V364.969C258.219 361.615 258.854 358.625 260.125 356C261.417 353.354 263.208 351.292 265.5 349.812C267.812 348.312 270.312 347.562 273 347.562C277.396 347.562 280.812 349.01 283.25 351.906C285.688 354.802 286.906 358.948 286.906 364.344V366.75H264C264.083 370.083 265.052 372.781 266.906 374.844C268.781 376.885 271.156 377.906 274.031 377.906C276.073 377.906 277.802 377.49 279.219 376.656C280.635 375.823 281.875 374.719 282.938 373.344L286.469 376.094C283.635 380.448 279.385 382.625 273.719 382.625ZM273 352.312C270.667 352.312 268.708 353.167 267.125 354.875C265.542 356.562 264.562 358.938 264.188 362H281.125V361.562C280.958 358.625 280.167 356.354 278.75 354.75C277.333 353.125 275.417 352.312 273 352.312ZM313.312 373.031C313.312 371.469 312.719 370.26 311.531 369.406C310.365 368.531 308.312 367.781 305.375 367.156C302.458 366.531 300.135 365.781 298.406 364.906C296.698 364.031 295.427 362.99 294.594 361.781C293.781 360.573 293.375 359.135 293.375 357.469C293.375 354.698 294.542 352.354 296.875 350.438C299.229 348.521 302.229 347.562 305.875 347.562C309.708 347.562 312.812 348.552 315.188 350.531C317.583 352.51 318.781 355.042 318.781 358.125H312.969C312.969 356.542 312.292 355.177 310.938 354.031C309.604 352.885 307.917 352.312 305.875 352.312C303.771 352.312 302.125 352.771 300.938 353.688C299.75 354.604 299.156 355.802 299.156 357.281C299.156 358.677 299.708 359.729 300.812 360.438C301.917 361.146 303.906 361.823 306.781 362.469C309.677 363.115 312.021 363.885 313.812 364.781C315.604 365.677 316.927 366.76 317.781 368.031C318.656 369.281 319.094 370.812 319.094 372.625C319.094 375.646 317.885 378.073 315.469 379.906C313.052 381.719 309.917 382.625 306.062 382.625C303.354 382.625 300.958 382.146 298.875 381.188C296.792 380.229 295.156 378.896 293.969 377.188C292.802 375.458 292.219 373.594 292.219 371.594H298C298.104 373.531 298.875 375.073 300.312 376.219C301.771 377.344 303.688 377.906 306.062 377.906C308.25 377.906 310 377.469 311.312 376.594C312.646 375.698 313.312 374.51 313.312 373.031Z" fill="#FF5C00"/>
</svg>
